<mxfile host="app.diagrams.net" modified="2024-04-24T00:44:04.093Z" agent="Mozilla/5.0 (Windows NT 10.0; Win64; x64) AppleWebKit/537.36 (KHTML, like Gecko) Chrome/124.0.0.0 Safari/537.36" etag="pT8YYEs9iPAuMbzgbkHN" version="24.2.8" type="device">
  <diagram name="Página-1" id="lCGH4CuF53JgLYkSw_f2">
    <mxGraphModel dx="2009" dy="739" grid="1" gridSize="10" guides="1" tooltips="1" connect="1" arrows="1" fold="1" page="1" pageScale="1" pageWidth="1169" pageHeight="827" math="0" shadow="0">
      <root>
        <mxCell id="0" />
        <mxCell id="1" parent="0" />
        <mxCell id="Ed4vf5yFAqMib3-vJOT--13" value="&lt;blockquote style=&quot;margin: 0 0 0 40px; border: none; padding: 0px;&quot;&gt;Detalle_ProdOrden&lt;/blockquote&gt;" style="swimlane;fontStyle=0;childLayout=stackLayout;horizontal=1;startSize=26;fillColor=none;horizontalStack=0;resizeParent=1;resizeParentMax=0;resizeLast=0;collapsible=1;marginBottom=0;whiteSpace=wrap;html=1;" vertex="1" parent="1">
          <mxGeometry x="-450" y="310" width="140" height="78" as="geometry" />
        </mxCell>
        <mxCell id="Ed4vf5yFAqMib3-vJOT--47" value="Id_Produ" style="text;strokeColor=none;fillColor=none;align=left;verticalAlign=top;spacingLeft=4;spacingRight=4;overflow=hidden;rotatable=0;points=[[0,0.5],[1,0.5]];portConstraint=eastwest;whiteSpace=wrap;html=1;" vertex="1" parent="Ed4vf5yFAqMib3-vJOT--13">
          <mxGeometry y="26" width="140" height="26" as="geometry" />
        </mxCell>
        <mxCell id="Ed4vf5yFAqMib3-vJOT--48" value="Id_orden" style="text;strokeColor=none;fillColor=none;align=left;verticalAlign=top;spacingLeft=4;spacingRight=4;overflow=hidden;rotatable=0;points=[[0,0.5],[1,0.5]];portConstraint=eastwest;whiteSpace=wrap;html=1;" vertex="1" parent="Ed4vf5yFAqMib3-vJOT--13">
          <mxGeometry y="52" width="140" height="26" as="geometry" />
        </mxCell>
        <mxCell id="Ed4vf5yFAqMib3-vJOT--17" value="Orden" style="swimlane;fontStyle=0;childLayout=stackLayout;horizontal=1;startSize=26;fillColor=none;horizontalStack=0;resizeParent=1;resizeParentMax=0;resizeLast=0;collapsible=1;marginBottom=0;whiteSpace=wrap;html=1;" vertex="1" parent="1">
          <mxGeometry x="-630" y="100" width="140" height="156" as="geometry" />
        </mxCell>
        <mxCell id="Ed4vf5yFAqMib3-vJOT--18" value="Id_orden" style="text;strokeColor=none;fillColor=none;align=left;verticalAlign=top;spacingLeft=4;spacingRight=4;overflow=hidden;rotatable=0;points=[[0,0.5],[1,0.5]];portConstraint=eastwest;whiteSpace=wrap;html=1;" vertex="1" parent="Ed4vf5yFAqMib3-vJOT--17">
          <mxGeometry y="26" width="140" height="26" as="geometry" />
        </mxCell>
        <mxCell id="Ed4vf5yFAqMib3-vJOT--45" value="Id_mesero" style="text;strokeColor=none;fillColor=none;align=left;verticalAlign=top;spacingLeft=4;spacingRight=4;overflow=hidden;rotatable=0;points=[[0,0.5],[1,0.5]];portConstraint=eastwest;whiteSpace=wrap;html=1;" vertex="1" parent="Ed4vf5yFAqMib3-vJOT--17">
          <mxGeometry y="52" width="140" height="26" as="geometry" />
        </mxCell>
        <mxCell id="Ed4vf5yFAqMib3-vJOT--46" value="Id_cliente" style="text;strokeColor=none;fillColor=none;align=left;verticalAlign=top;spacingLeft=4;spacingRight=4;overflow=hidden;rotatable=0;points=[[0,0.5],[1,0.5]];portConstraint=eastwest;whiteSpace=wrap;html=1;" vertex="1" parent="Ed4vf5yFAqMib3-vJOT--17">
          <mxGeometry y="78" width="140" height="26" as="geometry" />
        </mxCell>
        <mxCell id="Ed4vf5yFAqMib3-vJOT--19" value="fecha" style="text;strokeColor=none;fillColor=none;align=left;verticalAlign=top;spacingLeft=4;spacingRight=4;overflow=hidden;rotatable=0;points=[[0,0.5],[1,0.5]];portConstraint=eastwest;whiteSpace=wrap;html=1;" vertex="1" parent="Ed4vf5yFAqMib3-vJOT--17">
          <mxGeometry y="104" width="140" height="26" as="geometry" />
        </mxCell>
        <mxCell id="Ed4vf5yFAqMib3-vJOT--20" value="Cliente" style="text;strokeColor=none;fillColor=none;align=left;verticalAlign=top;spacingLeft=4;spacingRight=4;overflow=hidden;rotatable=0;points=[[0,0.5],[1,0.5]];portConstraint=eastwest;whiteSpace=wrap;html=1;" vertex="1" parent="Ed4vf5yFAqMib3-vJOT--17">
          <mxGeometry y="130" width="140" height="26" as="geometry" />
        </mxCell>
        <mxCell id="Ed4vf5yFAqMib3-vJOT--21" value="Categorías" style="swimlane;fontStyle=0;childLayout=stackLayout;horizontal=1;startSize=26;fillColor=none;horizontalStack=0;resizeParent=1;resizeParentMax=0;resizeLast=0;collapsible=1;marginBottom=0;whiteSpace=wrap;html=1;" vertex="1" parent="1">
          <mxGeometry x="-390" y="484" width="140" height="78" as="geometry" />
        </mxCell>
        <mxCell id="Ed4vf5yFAqMib3-vJOT--22" value="Id_Categ" style="text;strokeColor=none;fillColor=none;align=left;verticalAlign=top;spacingLeft=4;spacingRight=4;overflow=hidden;rotatable=0;points=[[0,0.5],[1,0.5]];portConstraint=eastwest;whiteSpace=wrap;html=1;" vertex="1" parent="Ed4vf5yFAqMib3-vJOT--21">
          <mxGeometry y="26" width="140" height="26" as="geometry" />
        </mxCell>
        <mxCell id="Ed4vf5yFAqMib3-vJOT--23" value="Categoria" style="text;strokeColor=none;fillColor=none;align=left;verticalAlign=top;spacingLeft=4;spacingRight=4;overflow=hidden;rotatable=0;points=[[0,0.5],[1,0.5]];portConstraint=eastwest;whiteSpace=wrap;html=1;" vertex="1" parent="Ed4vf5yFAqMib3-vJOT--21">
          <mxGeometry y="52" width="140" height="26" as="geometry" />
        </mxCell>
        <mxCell id="Ed4vf5yFAqMib3-vJOT--25" value="Ingrediente" style="swimlane;fontStyle=0;childLayout=stackLayout;horizontal=1;startSize=26;fillColor=none;horizontalStack=0;resizeParent=1;resizeParentMax=0;resizeLast=0;collapsible=1;marginBottom=0;whiteSpace=wrap;html=1;" vertex="1" parent="1">
          <mxGeometry x="-200" y="70" width="140" height="130" as="geometry" />
        </mxCell>
        <mxCell id="Ed4vf5yFAqMib3-vJOT--26" value="id_Ingrediente" style="text;strokeColor=none;fillColor=none;align=left;verticalAlign=top;spacingLeft=4;spacingRight=4;overflow=hidden;rotatable=0;points=[[0,0.5],[1,0.5]];portConstraint=eastwest;whiteSpace=wrap;html=1;" vertex="1" parent="Ed4vf5yFAqMib3-vJOT--25">
          <mxGeometry y="26" width="140" height="26" as="geometry" />
        </mxCell>
        <mxCell id="Ed4vf5yFAqMib3-vJOT--42" value="id_Categoria" style="text;strokeColor=none;fillColor=none;align=left;verticalAlign=top;spacingLeft=4;spacingRight=4;overflow=hidden;rotatable=0;points=[[0,0.5],[1,0.5]];portConstraint=eastwest;whiteSpace=wrap;html=1;" vertex="1" parent="Ed4vf5yFAqMib3-vJOT--25">
          <mxGeometry y="52" width="140" height="26" as="geometry" />
        </mxCell>
        <mxCell id="Ed4vf5yFAqMib3-vJOT--28" value="Nombre" style="text;strokeColor=none;fillColor=none;align=left;verticalAlign=top;spacingLeft=4;spacingRight=4;overflow=hidden;rotatable=0;points=[[0,0.5],[1,0.5]];portConstraint=eastwest;whiteSpace=wrap;html=1;" vertex="1" parent="Ed4vf5yFAqMib3-vJOT--25">
          <mxGeometry y="78" width="140" height="26" as="geometry" />
        </mxCell>
        <mxCell id="Ed4vf5yFAqMib3-vJOT--40" value="Precio" style="text;strokeColor=none;fillColor=none;align=left;verticalAlign=top;spacingLeft=4;spacingRight=4;overflow=hidden;rotatable=0;points=[[0,0.5],[1,0.5]];portConstraint=eastwest;whiteSpace=wrap;html=1;" vertex="1" parent="Ed4vf5yFAqMib3-vJOT--25">
          <mxGeometry y="104" width="140" height="26" as="geometry" />
        </mxCell>
        <mxCell id="Ed4vf5yFAqMib3-vJOT--29" value="Produto" style="swimlane;fontStyle=0;childLayout=stackLayout;horizontal=1;startSize=26;fillColor=none;horizontalStack=0;resizeParent=1;resizeParentMax=0;resizeLast=0;collapsible=1;marginBottom=0;whiteSpace=wrap;html=1;" vertex="1" parent="1">
          <mxGeometry x="-640" y="540" width="140" height="130" as="geometry" />
        </mxCell>
        <mxCell id="Ed4vf5yFAqMib3-vJOT--43" value="Id_Produ" style="text;strokeColor=none;fillColor=none;align=left;verticalAlign=top;spacingLeft=4;spacingRight=4;overflow=hidden;rotatable=0;points=[[0,0.5],[1,0.5]];portConstraint=eastwest;whiteSpace=wrap;html=1;" vertex="1" parent="Ed4vf5yFAqMib3-vJOT--29">
          <mxGeometry y="26" width="140" height="26" as="geometry" />
        </mxCell>
        <mxCell id="Ed4vf5yFAqMib3-vJOT--31" value="Nombre" style="text;strokeColor=none;fillColor=none;align=left;verticalAlign=top;spacingLeft=4;spacingRight=4;overflow=hidden;rotatable=0;points=[[0,0.5],[1,0.5]];portConstraint=eastwest;whiteSpace=wrap;html=1;" vertex="1" parent="Ed4vf5yFAqMib3-vJOT--29">
          <mxGeometry y="52" width="140" height="26" as="geometry" />
        </mxCell>
        <mxCell id="Ed4vf5yFAqMib3-vJOT--32" value="Precio" style="text;strokeColor=none;fillColor=none;align=left;verticalAlign=top;spacingLeft=4;spacingRight=4;overflow=hidden;rotatable=0;points=[[0,0.5],[1,0.5]];portConstraint=eastwest;whiteSpace=wrap;html=1;" vertex="1" parent="Ed4vf5yFAqMib3-vJOT--29">
          <mxGeometry y="78" width="140" height="26" as="geometry" />
        </mxCell>
        <mxCell id="Ed4vf5yFAqMib3-vJOT--39" value="id_Categoria" style="text;strokeColor=none;fillColor=none;align=left;verticalAlign=top;spacingLeft=4;spacingRight=4;overflow=hidden;rotatable=0;points=[[0,0.5],[1,0.5]];portConstraint=eastwest;whiteSpace=wrap;html=1;" vertex="1" parent="Ed4vf5yFAqMib3-vJOT--29">
          <mxGeometry y="104" width="140" height="26" as="geometry" />
        </mxCell>
        <mxCell id="Ed4vf5yFAqMib3-vJOT--33" value="Clientes" style="swimlane;fontStyle=0;childLayout=stackLayout;horizontal=1;startSize=26;fillColor=none;horizontalStack=0;resizeParent=1;resizeParentMax=0;resizeLast=0;collapsible=1;marginBottom=0;whiteSpace=wrap;html=1;" vertex="1" parent="1">
          <mxGeometry x="-800" y="370" width="140" height="156" as="geometry" />
        </mxCell>
        <mxCell id="Ed4vf5yFAqMib3-vJOT--44" value="Id_Cliente" style="text;strokeColor=none;fillColor=none;align=left;verticalAlign=top;spacingLeft=4;spacingRight=4;overflow=hidden;rotatable=0;points=[[0,0.5],[1,0.5]];portConstraint=eastwest;whiteSpace=wrap;html=1;" vertex="1" parent="Ed4vf5yFAqMib3-vJOT--33">
          <mxGeometry y="26" width="140" height="26" as="geometry" />
        </mxCell>
        <mxCell id="Ed4vf5yFAqMib3-vJOT--34" value="nombre" style="text;strokeColor=none;fillColor=none;align=left;verticalAlign=top;spacingLeft=4;spacingRight=4;overflow=hidden;rotatable=0;points=[[0,0.5],[1,0.5]];portConstraint=eastwest;whiteSpace=wrap;html=1;" vertex="1" parent="Ed4vf5yFAqMib3-vJOT--33">
          <mxGeometry y="52" width="140" height="26" as="geometry" />
        </mxCell>
        <mxCell id="Ed4vf5yFAqMib3-vJOT--35" value="telefono" style="text;strokeColor=none;fillColor=none;align=left;verticalAlign=top;spacingLeft=4;spacingRight=4;overflow=hidden;rotatable=0;points=[[0,0.5],[1,0.5]];portConstraint=eastwest;whiteSpace=wrap;html=1;" vertex="1" parent="Ed4vf5yFAqMib3-vJOT--33">
          <mxGeometry y="78" width="140" height="26" as="geometry" />
        </mxCell>
        <mxCell id="Ed4vf5yFAqMib3-vJOT--36" value="correo" style="text;strokeColor=none;fillColor=none;align=left;verticalAlign=top;spacingLeft=4;spacingRight=4;overflow=hidden;rotatable=0;points=[[0,0.5],[1,0.5]];portConstraint=eastwest;whiteSpace=wrap;html=1;" vertex="1" parent="Ed4vf5yFAqMib3-vJOT--33">
          <mxGeometry y="104" width="140" height="26" as="geometry" />
        </mxCell>
        <mxCell id="Ed4vf5yFAqMib3-vJOT--37" value="Direccion" style="text;strokeColor=none;fillColor=none;align=left;verticalAlign=top;spacingLeft=4;spacingRight=4;overflow=hidden;rotatable=0;points=[[0,0.5],[1,0.5]];portConstraint=eastwest;whiteSpace=wrap;html=1;" vertex="1" parent="Ed4vf5yFAqMib3-vJOT--33">
          <mxGeometry y="130" width="140" height="26" as="geometry" />
        </mxCell>
        <mxCell id="Ed4vf5yFAqMib3-vJOT--49" value="Mesero" style="swimlane;fontStyle=0;childLayout=stackLayout;horizontal=1;startSize=26;fillColor=none;horizontalStack=0;resizeParent=1;resizeParentMax=0;resizeLast=0;collapsible=1;marginBottom=0;whiteSpace=wrap;html=1;" vertex="1" parent="1">
          <mxGeometry x="-420" y="96" width="140" height="130" as="geometry" />
        </mxCell>
        <mxCell id="Ed4vf5yFAqMib3-vJOT--50" value="Id_Cliente" style="text;strokeColor=none;fillColor=none;align=left;verticalAlign=top;spacingLeft=4;spacingRight=4;overflow=hidden;rotatable=0;points=[[0,0.5],[1,0.5]];portConstraint=eastwest;whiteSpace=wrap;html=1;" vertex="1" parent="Ed4vf5yFAqMib3-vJOT--49">
          <mxGeometry y="26" width="140" height="26" as="geometry" />
        </mxCell>
        <mxCell id="Ed4vf5yFAqMib3-vJOT--51" value="nombre" style="text;strokeColor=none;fillColor=none;align=left;verticalAlign=top;spacingLeft=4;spacingRight=4;overflow=hidden;rotatable=0;points=[[0,0.5],[1,0.5]];portConstraint=eastwest;whiteSpace=wrap;html=1;" vertex="1" parent="Ed4vf5yFAqMib3-vJOT--49">
          <mxGeometry y="52" width="140" height="26" as="geometry" />
        </mxCell>
        <mxCell id="Ed4vf5yFAqMib3-vJOT--52" value="telefono" style="text;strokeColor=none;fillColor=none;align=left;verticalAlign=top;spacingLeft=4;spacingRight=4;overflow=hidden;rotatable=0;points=[[0,0.5],[1,0.5]];portConstraint=eastwest;whiteSpace=wrap;html=1;" vertex="1" parent="Ed4vf5yFAqMib3-vJOT--49">
          <mxGeometry y="78" width="140" height="26" as="geometry" />
        </mxCell>
        <mxCell id="Ed4vf5yFAqMib3-vJOT--53" value="correo" style="text;strokeColor=none;fillColor=none;align=left;verticalAlign=top;spacingLeft=4;spacingRight=4;overflow=hidden;rotatable=0;points=[[0,0.5],[1,0.5]];portConstraint=eastwest;whiteSpace=wrap;html=1;" vertex="1" parent="Ed4vf5yFAqMib3-vJOT--49">
          <mxGeometry y="104" width="140" height="26" as="geometry" />
        </mxCell>
        <mxCell id="Ed4vf5yFAqMib3-vJOT--55" value="DetallePregRes" style="swimlane;fontStyle=0;childLayout=stackLayout;horizontal=1;startSize=26;fillColor=none;horizontalStack=0;resizeParent=1;resizeParentMax=0;resizeLast=0;collapsible=1;marginBottom=0;whiteSpace=wrap;html=1;" vertex="1" parent="1">
          <mxGeometry x="-940" y="152" width="140" height="104" as="geometry" />
        </mxCell>
        <mxCell id="Ed4vf5yFAqMib3-vJOT--67" value="Id_&lt;span style=&quot;text-align: center;&quot;&gt;Respuestas&lt;/span&gt;" style="text;strokeColor=none;fillColor=none;align=left;verticalAlign=top;spacingLeft=4;spacingRight=4;overflow=hidden;rotatable=0;points=[[0,0.5],[1,0.5]];portConstraint=eastwest;whiteSpace=wrap;html=1;" vertex="1" parent="Ed4vf5yFAqMib3-vJOT--55">
          <mxGeometry y="26" width="140" height="26" as="geometry" />
        </mxCell>
        <mxCell id="Ed4vf5yFAqMib3-vJOT--69" value="Id_Cliente" style="text;strokeColor=none;fillColor=none;align=left;verticalAlign=top;spacingLeft=4;spacingRight=4;overflow=hidden;rotatable=0;points=[[0,0.5],[1,0.5]];portConstraint=eastwest;whiteSpace=wrap;html=1;" vertex="1" parent="Ed4vf5yFAqMib3-vJOT--55">
          <mxGeometry y="52" width="140" height="26" as="geometry" />
        </mxCell>
        <mxCell id="Ed4vf5yFAqMib3-vJOT--68" value="id_preguntas" style="text;strokeColor=none;fillColor=none;align=left;verticalAlign=top;spacingLeft=4;spacingRight=4;overflow=hidden;rotatable=0;points=[[0,0.5],[1,0.5]];portConstraint=eastwest;whiteSpace=wrap;html=1;" vertex="1" parent="Ed4vf5yFAqMib3-vJOT--55">
          <mxGeometry y="78" width="140" height="26" as="geometry" />
        </mxCell>
        <mxCell id="Ed4vf5yFAqMib3-vJOT--59" value="Respuestas" style="swimlane;fontStyle=0;childLayout=stackLayout;horizontal=1;startSize=26;fillColor=none;horizontalStack=0;resizeParent=1;resizeParentMax=0;resizeLast=0;collapsible=1;marginBottom=0;whiteSpace=wrap;html=1;" vertex="1" parent="1">
          <mxGeometry x="-1160" y="210" width="140" height="78" as="geometry" />
        </mxCell>
        <mxCell id="Ed4vf5yFAqMib3-vJOT--60" value="Id_&lt;span style=&quot;text-align: center;&quot;&gt;Respuestas&lt;/span&gt;" style="text;strokeColor=none;fillColor=none;align=left;verticalAlign=top;spacingLeft=4;spacingRight=4;overflow=hidden;rotatable=0;points=[[0,0.5],[1,0.5]];portConstraint=eastwest;whiteSpace=wrap;html=1;" vertex="1" parent="Ed4vf5yFAqMib3-vJOT--59">
          <mxGeometry y="26" width="140" height="26" as="geometry" />
        </mxCell>
        <mxCell id="Ed4vf5yFAqMib3-vJOT--61" value="Respuesta" style="text;strokeColor=none;fillColor=none;align=left;verticalAlign=top;spacingLeft=4;spacingRight=4;overflow=hidden;rotatable=0;points=[[0,0.5],[1,0.5]];portConstraint=eastwest;whiteSpace=wrap;html=1;" vertex="1" parent="Ed4vf5yFAqMib3-vJOT--59">
          <mxGeometry y="52" width="140" height="26" as="geometry" />
        </mxCell>
        <mxCell id="Ed4vf5yFAqMib3-vJOT--63" value="Preguntas" style="swimlane;fontStyle=0;childLayout=stackLayout;horizontal=1;startSize=26;fillColor=none;horizontalStack=0;resizeParent=1;resizeParentMax=0;resizeLast=0;collapsible=1;marginBottom=0;whiteSpace=wrap;html=1;" vertex="1" parent="1">
          <mxGeometry x="-1160" y="90" width="140" height="78" as="geometry" />
        </mxCell>
        <mxCell id="Ed4vf5yFAqMib3-vJOT--64" value="id_preguntas" style="text;strokeColor=none;fillColor=none;align=left;verticalAlign=top;spacingLeft=4;spacingRight=4;overflow=hidden;rotatable=0;points=[[0,0.5],[1,0.5]];portConstraint=eastwest;whiteSpace=wrap;html=1;" vertex="1" parent="Ed4vf5yFAqMib3-vJOT--63">
          <mxGeometry y="26" width="140" height="26" as="geometry" />
        </mxCell>
        <mxCell id="Ed4vf5yFAqMib3-vJOT--65" value="Pregunta" style="text;strokeColor=none;fillColor=none;align=left;verticalAlign=top;spacingLeft=4;spacingRight=4;overflow=hidden;rotatable=0;points=[[0,0.5],[1,0.5]];portConstraint=eastwest;whiteSpace=wrap;html=1;" vertex="1" parent="Ed4vf5yFAqMib3-vJOT--63">
          <mxGeometry y="52" width="140" height="26" as="geometry" />
        </mxCell>
        <mxCell id="Ed4vf5yFAqMib3-vJOT--70" value="" style="edgeStyle=entityRelationEdgeStyle;fontSize=12;html=1;endArrow=ERoneToMany;rounded=0;entryX=0.009;entryY=0.101;entryDx=0;entryDy=0;entryPerimeter=0;" edge="1" parent="1" source="Ed4vf5yFAqMib3-vJOT--63" target="Ed4vf5yFAqMib3-vJOT--55">
          <mxGeometry width="100" height="100" relative="1" as="geometry">
            <mxPoint x="-1010" y="470" as="sourcePoint" />
            <mxPoint x="-910" y="370" as="targetPoint" />
          </mxGeometry>
        </mxCell>
        <mxCell id="Ed4vf5yFAqMib3-vJOT--71" value="" style="edgeStyle=entityRelationEdgeStyle;fontSize=12;html=1;endArrow=ERoneToMany;rounded=0;" edge="1" parent="1" source="Ed4vf5yFAqMib3-vJOT--59" target="Ed4vf5yFAqMib3-vJOT--55">
          <mxGeometry width="100" height="100" relative="1" as="geometry">
            <mxPoint x="-1010" y="139" as="sourcePoint" />
            <mxPoint x="-929" y="173" as="targetPoint" />
          </mxGeometry>
        </mxCell>
        <mxCell id="Ed4vf5yFAqMib3-vJOT--72" value="" style="edgeStyle=entityRelationEdgeStyle;fontSize=12;html=1;endArrow=ERoneToMany;rounded=0;entryX=1;entryY=0.5;entryDx=0;entryDy=0;exitX=0.75;exitY=0;exitDx=0;exitDy=0;" edge="1" parent="1" source="Ed4vf5yFAqMib3-vJOT--33" target="Ed4vf5yFAqMib3-vJOT--69">
          <mxGeometry width="100" height="100" relative="1" as="geometry">
            <mxPoint x="-880" y="422.0000000000001" as="sourcePoint" />
            <mxPoint x="-990" y="256" as="targetPoint" />
            <Array as="points">
              <mxPoint x="-860" y="290" />
              <mxPoint x="-882" y="300" />
              <mxPoint x="-800" y="300" />
            </Array>
          </mxGeometry>
        </mxCell>
        <mxCell id="Ed4vf5yFAqMib3-vJOT--73" value="" style="edgeStyle=entityRelationEdgeStyle;fontSize=12;html=1;endArrow=ERoneToMany;rounded=0;exitX=0.5;exitY=0;exitDx=0;exitDy=0;" edge="1" parent="1">
          <mxGeometry width="100" height="100" relative="1" as="geometry">
            <mxPoint x="-740" y="370" as="sourcePoint" />
            <mxPoint x="-640" y="178.0000000000001" as="targetPoint" />
            <Array as="points">
              <mxPoint x="-860" y="300" />
              <mxPoint x="-882" y="310" />
              <mxPoint x="-800" y="310" />
            </Array>
          </mxGeometry>
        </mxCell>
        <mxCell id="Ed4vf5yFAqMib3-vJOT--75" value="" style="edgeStyle=entityRelationEdgeStyle;fontSize=12;html=1;endArrow=ERoneToMany;rounded=0;exitX=1;exitY=0.5;exitDx=0;exitDy=0;entryX=-0.011;entryY=0.014;entryDx=0;entryDy=0;entryPerimeter=0;" edge="1" parent="1" source="Ed4vf5yFAqMib3-vJOT--20" target="Ed4vf5yFAqMib3-vJOT--47">
          <mxGeometry width="100" height="100" relative="1" as="geometry">
            <mxPoint x="-730" y="380" as="sourcePoint" />
            <mxPoint x="-630" y="188.0000000000001" as="targetPoint" />
            <Array as="points">
              <mxPoint x="-850" y="310" />
              <mxPoint x="-872" y="320" />
              <mxPoint x="-790" y="320" />
            </Array>
          </mxGeometry>
        </mxCell>
        <mxCell id="Ed4vf5yFAqMib3-vJOT--76" value="" style="edgeStyle=entityRelationEdgeStyle;fontSize=12;html=1;endArrow=ERoneToMany;rounded=0;exitX=1;exitY=0.5;exitDx=0;exitDy=0;entryX=0.002;entryY=0.867;entryDx=0;entryDy=0;entryPerimeter=0;" edge="1" parent="1" source="Ed4vf5yFAqMib3-vJOT--43" target="Ed4vf5yFAqMib3-vJOT--48">
          <mxGeometry width="100" height="100" relative="1" as="geometry">
            <mxPoint x="-500" y="357" as="sourcePoint" />
            <mxPoint x="-463" y="484" as="targetPoint" />
            <Array as="points">
              <mxPoint x="-860" y="424" />
              <mxPoint x="-520" y="450" />
              <mxPoint x="-882" y="434" />
              <mxPoint x="-800" y="434" />
            </Array>
          </mxGeometry>
        </mxCell>
        <mxCell id="Ed4vf5yFAqMib3-vJOT--77" value="" style="edgeStyle=entityRelationEdgeStyle;fontSize=12;html=1;endArrow=ERoneToMany;rounded=0;exitX=1;exitY=0.5;exitDx=0;exitDy=0;entryX=0;entryY=0.5;entryDx=0;entryDy=0;" edge="1" parent="1" source="Ed4vf5yFAqMib3-vJOT--39" target="Ed4vf5yFAqMib3-vJOT--23">
          <mxGeometry width="100" height="100" relative="1" as="geometry">
            <mxPoint x="-340" y="480" as="sourcePoint" />
            <mxPoint x="-130" y="460" as="targetPoint" />
            <Array as="points">
              <mxPoint x="-850" y="434" />
              <mxPoint x="-170" y="490" />
              <mxPoint x="-872" y="444" />
              <mxPoint x="-790" y="444" />
            </Array>
          </mxGeometry>
        </mxCell>
        <mxCell id="Ed4vf5yFAqMib3-vJOT--78" value="" style="edgeStyle=entityRelationEdgeStyle;fontSize=12;html=1;endArrow=ERoneToMany;rounded=0;exitX=1;exitY=0.5;exitDx=0;exitDy=0;entryX=0;entryY=0.5;entryDx=0;entryDy=0;" edge="1" parent="1" source="Ed4vf5yFAqMib3-vJOT--22" target="Ed4vf5yFAqMib3-vJOT--40">
          <mxGeometry width="100" height="100" relative="1" as="geometry">
            <mxPoint x="-310" y="514" as="sourcePoint" />
            <mxPoint x="-150" y="90" as="targetPoint" />
            <Array as="points">
              <mxPoint x="-790" y="321" />
              <mxPoint x="-110" y="377" />
              <mxPoint x="-812" y="331" />
              <mxPoint x="-730" y="331" />
            </Array>
          </mxGeometry>
        </mxCell>
        <mxCell id="Ed4vf5yFAqMib3-vJOT--79" value="" style="edgeStyle=entityRelationEdgeStyle;fontSize=12;html=1;endArrow=ERoneToMany;rounded=0;entryX=0;entryY=0.5;entryDx=0;entryDy=0;exitX=1;exitY=0.5;exitDx=0;exitDy=0;" edge="1" parent="1" source="Ed4vf5yFAqMib3-vJOT--45" target="Ed4vf5yFAqMib3-vJOT--52">
          <mxGeometry width="100" height="100" relative="1" as="geometry">
            <mxPoint x="-460" y="130" as="sourcePoint" />
            <mxPoint x="-442" y="346" as="targetPoint" />
            <Array as="points">
              <mxPoint x="-840" y="320" />
              <mxPoint x="-862" y="330" />
              <mxPoint x="-780" y="330" />
            </Array>
          </mxGeometry>
        </mxCell>
      </root>
    </mxGraphModel>
  </diagram>
</mxfile>
